%TF.GenerationSoftware,KiCad,Pcbnew,10.0.1*%
%TF.CreationDate,2026-04-24T15:57:57+02:00*%
%TF.ProjectId,Untitled,556e7469-746c-4656-942e-6b696361645f,rev?*%
%TF.SameCoordinates,Original*%
%TF.FileFunction,Soldermask,Bot*%
%TF.FilePolarity,Negative*%
%FSLAX46Y46*%
G04 Gerber Fmt 4.6, Leading zero omitted, Abs format (unit mm)*
G04 Created by KiCad (PCBNEW 10.0.1) date 2026-04-24 15:57:57*
%MOMM*%
%LPD*%
G01*
G04 APERTURE LIST*
G04 Aperture macros list*
%AMRoundRect*
0 Rectangle with rounded corners*
0 $1 Rounding radius*
0 $2 $3 $4 $5 $6 $7 $8 $9 X,Y pos of 4 corners*
0 Add a 4 corners polygon primitive as box body*
4,1,4,$2,$3,$4,$5,$6,$7,$8,$9,$2,$3,0*
0 Add four circle primitives for the rounded corners*
1,1,$1+$1,$2,$3*
1,1,$1+$1,$4,$5*
1,1,$1+$1,$6,$7*
1,1,$1+$1,$8,$9*
0 Add four rect primitives between the rounded corners*
20,1,$1+$1,$2,$3,$4,$5,0*
20,1,$1+$1,$4,$5,$6,$7,0*
20,1,$1+$1,$6,$7,$8,$9,0*
20,1,$1+$1,$8,$9,$2,$3,0*%
G04 Aperture macros list end*
%ADD10C,1.400000*%
%ADD11C,2.019000*%
%ADD12RoundRect,0.102000X-0.907500X-0.907500X0.907500X-0.907500X0.907500X0.907500X-0.907500X0.907500X0*%
%ADD13C,3.000000*%
%ADD14RoundRect,0.102000X-0.754000X-0.754000X0.754000X-0.754000X0.754000X0.754000X-0.754000X0.754000X0*%
%ADD15C,1.712000*%
%ADD16C,1.524000*%
G04 APERTURE END LIST*
D10*
%TO.C,R3*%
X141950000Y-76910000D03*
X141950000Y-81990000D03*
%TD*%
D11*
%TO.C,D2*%
X132900428Y-87265106D03*
D12*
X130360428Y-87265106D03*
%TD*%
%TO.C,D1*%
X130360428Y-79800000D03*
D11*
X132900428Y-79800000D03*
%TD*%
D13*
%TO.C,DS1*%
X128200000Y-109750000D03*
X128200000Y-139450000D03*
X159700000Y-109750000D03*
X159700000Y-139450000D03*
D14*
X140140000Y-109050000D03*
D15*
X142680000Y-109050000D03*
X145220000Y-109050000D03*
X147760000Y-109050000D03*
%TD*%
D11*
%TO.C,D4*%
X132900428Y-102195318D03*
D12*
X130360428Y-102195318D03*
%TD*%
D11*
%TO.C,D3*%
X132900428Y-94730212D03*
D12*
X130360428Y-94730212D03*
%TD*%
D10*
%TO.C,R1*%
X149950000Y-76920000D03*
X149950000Y-82000000D03*
%TD*%
%TO.C,R2*%
X146100000Y-76960000D03*
X146100000Y-82040000D03*
%TD*%
%TO.C,R4*%
X137450000Y-76860000D03*
X137450000Y-81940000D03*
%TD*%
D16*
%TO.C,U2*%
X156001500Y-103320000D03*
X153461500Y-103320000D03*
X150921500Y-103320000D03*
X148381500Y-103320000D03*
X145841500Y-103320000D03*
X143301500Y-103320000D03*
X140761500Y-103320000D03*
X140761500Y-88080000D03*
X143301500Y-88080000D03*
X145841500Y-88080000D03*
X148381500Y-88080000D03*
X150921500Y-88080000D03*
X153461500Y-88080000D03*
X156001500Y-88080000D03*
%TD*%
M02*
