%TF.GenerationSoftware,KiCad,Pcbnew,10.0.1*%
%TF.CreationDate,2026-04-24T15:57:57+02:00*%
%TF.ProjectId,Untitled,556e7469-746c-4656-942e-6b696361645f,rev?*%
%TF.SameCoordinates,Original*%
%TF.FileFunction,Legend,Top*%
%TF.FilePolarity,Positive*%
%FSLAX46Y46*%
G04 Gerber Fmt 4.6, Leading zero omitted, Abs format (unit mm)*
G04 Created by KiCad (PCBNEW 10.0.1) date 2026-04-24 15:57:57*
%MOMM*%
%LPD*%
G01*
G04 APERTURE LIST*
%ADD10C,0.150000*%
%ADD11C,0.101600*%
%ADD12C,0.120000*%
%ADD13C,0.127000*%
%ADD14C,0.200000*%
%ADD15C,0.141419*%
%ADD16C,0.504000*%
%ADD17C,0.100000*%
G04 APERTURE END LIST*
D10*
X144324819Y-79616666D02*
X143848628Y-79949999D01*
X144324819Y-80188094D02*
X143324819Y-80188094D01*
X143324819Y-80188094D02*
X143324819Y-79807142D01*
X143324819Y-79807142D02*
X143372438Y-79711904D01*
X143372438Y-79711904D02*
X143420057Y-79664285D01*
X143420057Y-79664285D02*
X143515295Y-79616666D01*
X143515295Y-79616666D02*
X143658152Y-79616666D01*
X143658152Y-79616666D02*
X143753390Y-79664285D01*
X143753390Y-79664285D02*
X143801009Y-79711904D01*
X143801009Y-79711904D02*
X143848628Y-79807142D01*
X143848628Y-79807142D02*
X143848628Y-80188094D01*
X143324819Y-79283332D02*
X143324819Y-78664285D01*
X143324819Y-78664285D02*
X143705771Y-78997618D01*
X143705771Y-78997618D02*
X143705771Y-78854761D01*
X143705771Y-78854761D02*
X143753390Y-78759523D01*
X143753390Y-78759523D02*
X143801009Y-78711904D01*
X143801009Y-78711904D02*
X143896247Y-78664285D01*
X143896247Y-78664285D02*
X144134342Y-78664285D01*
X144134342Y-78664285D02*
X144229580Y-78711904D01*
X144229580Y-78711904D02*
X144277200Y-78759523D01*
X144277200Y-78759523D02*
X144324819Y-78854761D01*
X144324819Y-78854761D02*
X144324819Y-79140475D01*
X144324819Y-79140475D02*
X144277200Y-79235713D01*
X144277200Y-79235713D02*
X144229580Y-79283332D01*
X131079952Y-83919401D02*
X131079952Y-83119401D01*
X131079952Y-83119401D02*
X131270428Y-83119401D01*
X131270428Y-83119401D02*
X131384714Y-83157496D01*
X131384714Y-83157496D02*
X131460904Y-83233686D01*
X131460904Y-83233686D02*
X131498999Y-83309877D01*
X131498999Y-83309877D02*
X131537095Y-83462258D01*
X131537095Y-83462258D02*
X131537095Y-83576544D01*
X131537095Y-83576544D02*
X131498999Y-83728925D01*
X131498999Y-83728925D02*
X131460904Y-83805115D01*
X131460904Y-83805115D02*
X131384714Y-83881306D01*
X131384714Y-83881306D02*
X131270428Y-83919401D01*
X131270428Y-83919401D02*
X131079952Y-83919401D01*
X131841856Y-83195591D02*
X131879952Y-83157496D01*
X131879952Y-83157496D02*
X131956142Y-83119401D01*
X131956142Y-83119401D02*
X132146618Y-83119401D01*
X132146618Y-83119401D02*
X132222809Y-83157496D01*
X132222809Y-83157496D02*
X132260904Y-83195591D01*
X132260904Y-83195591D02*
X132298999Y-83271782D01*
X132298999Y-83271782D02*
X132298999Y-83347972D01*
X132298999Y-83347972D02*
X132260904Y-83462258D01*
X132260904Y-83462258D02*
X131803761Y-83919401D01*
X131803761Y-83919401D02*
X132298999Y-83919401D01*
X131079952Y-76454295D02*
X131079952Y-75654295D01*
X131079952Y-75654295D02*
X131270428Y-75654295D01*
X131270428Y-75654295D02*
X131384714Y-75692390D01*
X131384714Y-75692390D02*
X131460904Y-75768580D01*
X131460904Y-75768580D02*
X131498999Y-75844771D01*
X131498999Y-75844771D02*
X131537095Y-75997152D01*
X131537095Y-75997152D02*
X131537095Y-76111438D01*
X131537095Y-76111438D02*
X131498999Y-76263819D01*
X131498999Y-76263819D02*
X131460904Y-76340009D01*
X131460904Y-76340009D02*
X131384714Y-76416200D01*
X131384714Y-76416200D02*
X131270428Y-76454295D01*
X131270428Y-76454295D02*
X131079952Y-76454295D01*
X132298999Y-76454295D02*
X131841856Y-76454295D01*
X132070428Y-76454295D02*
X132070428Y-75654295D01*
X132070428Y-75654295D02*
X131994237Y-75768580D01*
X131994237Y-75768580D02*
X131918047Y-75844771D01*
X131918047Y-75844771D02*
X131841856Y-75882866D01*
X128160714Y-107169819D02*
X128160714Y-106169819D01*
X128160714Y-106169819D02*
X128398809Y-106169819D01*
X128398809Y-106169819D02*
X128541666Y-106217438D01*
X128541666Y-106217438D02*
X128636904Y-106312676D01*
X128636904Y-106312676D02*
X128684523Y-106407914D01*
X128684523Y-106407914D02*
X128732142Y-106598390D01*
X128732142Y-106598390D02*
X128732142Y-106741247D01*
X128732142Y-106741247D02*
X128684523Y-106931723D01*
X128684523Y-106931723D02*
X128636904Y-107026961D01*
X128636904Y-107026961D02*
X128541666Y-107122200D01*
X128541666Y-107122200D02*
X128398809Y-107169819D01*
X128398809Y-107169819D02*
X128160714Y-107169819D01*
X129113095Y-107122200D02*
X129255952Y-107169819D01*
X129255952Y-107169819D02*
X129494047Y-107169819D01*
X129494047Y-107169819D02*
X129589285Y-107122200D01*
X129589285Y-107122200D02*
X129636904Y-107074580D01*
X129636904Y-107074580D02*
X129684523Y-106979342D01*
X129684523Y-106979342D02*
X129684523Y-106884104D01*
X129684523Y-106884104D02*
X129636904Y-106788866D01*
X129636904Y-106788866D02*
X129589285Y-106741247D01*
X129589285Y-106741247D02*
X129494047Y-106693628D01*
X129494047Y-106693628D02*
X129303571Y-106646009D01*
X129303571Y-106646009D02*
X129208333Y-106598390D01*
X129208333Y-106598390D02*
X129160714Y-106550771D01*
X129160714Y-106550771D02*
X129113095Y-106455533D01*
X129113095Y-106455533D02*
X129113095Y-106360295D01*
X129113095Y-106360295D02*
X129160714Y-106265057D01*
X129160714Y-106265057D02*
X129208333Y-106217438D01*
X129208333Y-106217438D02*
X129303571Y-106169819D01*
X129303571Y-106169819D02*
X129541666Y-106169819D01*
X129541666Y-106169819D02*
X129684523Y-106217438D01*
X130636904Y-107169819D02*
X130065476Y-107169819D01*
X130351190Y-107169819D02*
X130351190Y-106169819D01*
X130351190Y-106169819D02*
X130255952Y-106312676D01*
X130255952Y-106312676D02*
X130160714Y-106407914D01*
X130160714Y-106407914D02*
X130065476Y-106455533D01*
X131079952Y-98849613D02*
X131079952Y-98049613D01*
X131079952Y-98049613D02*
X131270428Y-98049613D01*
X131270428Y-98049613D02*
X131384714Y-98087708D01*
X131384714Y-98087708D02*
X131460904Y-98163898D01*
X131460904Y-98163898D02*
X131498999Y-98240089D01*
X131498999Y-98240089D02*
X131537095Y-98392470D01*
X131537095Y-98392470D02*
X131537095Y-98506756D01*
X131537095Y-98506756D02*
X131498999Y-98659137D01*
X131498999Y-98659137D02*
X131460904Y-98735327D01*
X131460904Y-98735327D02*
X131384714Y-98811518D01*
X131384714Y-98811518D02*
X131270428Y-98849613D01*
X131270428Y-98849613D02*
X131079952Y-98849613D01*
X132222809Y-98316279D02*
X132222809Y-98849613D01*
X132032333Y-98011518D02*
X131841856Y-98582946D01*
X131841856Y-98582946D02*
X132337095Y-98582946D01*
X155328547Y-76853875D02*
X155328547Y-77664821D01*
X155328547Y-77664821D02*
X155376250Y-77760226D01*
X155376250Y-77760226D02*
X155423952Y-77807929D01*
X155423952Y-77807929D02*
X155519358Y-77855631D01*
X155519358Y-77855631D02*
X155710168Y-77855631D01*
X155710168Y-77855631D02*
X155805574Y-77807929D01*
X155805574Y-77807929D02*
X155853276Y-77760226D01*
X155853276Y-77760226D02*
X155900979Y-77664821D01*
X155900979Y-77664821D02*
X155900979Y-76853875D01*
X156902735Y-77855631D02*
X156330303Y-77855631D01*
X156616519Y-77855631D02*
X156616519Y-76853875D01*
X156616519Y-76853875D02*
X156521114Y-76996983D01*
X156521114Y-76996983D02*
X156425709Y-77092389D01*
X156425709Y-77092389D02*
X156330303Y-77140091D01*
X131079952Y-91384507D02*
X131079952Y-90584507D01*
X131079952Y-90584507D02*
X131270428Y-90584507D01*
X131270428Y-90584507D02*
X131384714Y-90622602D01*
X131384714Y-90622602D02*
X131460904Y-90698792D01*
X131460904Y-90698792D02*
X131498999Y-90774983D01*
X131498999Y-90774983D02*
X131537095Y-90927364D01*
X131537095Y-90927364D02*
X131537095Y-91041650D01*
X131537095Y-91041650D02*
X131498999Y-91194031D01*
X131498999Y-91194031D02*
X131460904Y-91270221D01*
X131460904Y-91270221D02*
X131384714Y-91346412D01*
X131384714Y-91346412D02*
X131270428Y-91384507D01*
X131270428Y-91384507D02*
X131079952Y-91384507D01*
X131803761Y-90584507D02*
X132298999Y-90584507D01*
X132298999Y-90584507D02*
X132032333Y-90889269D01*
X132032333Y-90889269D02*
X132146618Y-90889269D01*
X132146618Y-90889269D02*
X132222809Y-90927364D01*
X132222809Y-90927364D02*
X132260904Y-90965459D01*
X132260904Y-90965459D02*
X132298999Y-91041650D01*
X132298999Y-91041650D02*
X132298999Y-91232126D01*
X132298999Y-91232126D02*
X132260904Y-91308316D01*
X132260904Y-91308316D02*
X132222809Y-91346412D01*
X132222809Y-91346412D02*
X132146618Y-91384507D01*
X132146618Y-91384507D02*
X131918047Y-91384507D01*
X131918047Y-91384507D02*
X131841856Y-91346412D01*
X131841856Y-91346412D02*
X131803761Y-91308316D01*
X152324819Y-79626666D02*
X151848628Y-79959999D01*
X152324819Y-80198094D02*
X151324819Y-80198094D01*
X151324819Y-80198094D02*
X151324819Y-79817142D01*
X151324819Y-79817142D02*
X151372438Y-79721904D01*
X151372438Y-79721904D02*
X151420057Y-79674285D01*
X151420057Y-79674285D02*
X151515295Y-79626666D01*
X151515295Y-79626666D02*
X151658152Y-79626666D01*
X151658152Y-79626666D02*
X151753390Y-79674285D01*
X151753390Y-79674285D02*
X151801009Y-79721904D01*
X151801009Y-79721904D02*
X151848628Y-79817142D01*
X151848628Y-79817142D02*
X151848628Y-80198094D01*
X152324819Y-78674285D02*
X152324819Y-79245713D01*
X152324819Y-78959999D02*
X151324819Y-78959999D01*
X151324819Y-78959999D02*
X151467676Y-79055237D01*
X151467676Y-79055237D02*
X151562914Y-79150475D01*
X151562914Y-79150475D02*
X151610533Y-79245713D01*
X148474819Y-79666666D02*
X147998628Y-79999999D01*
X148474819Y-80238094D02*
X147474819Y-80238094D01*
X147474819Y-80238094D02*
X147474819Y-79857142D01*
X147474819Y-79857142D02*
X147522438Y-79761904D01*
X147522438Y-79761904D02*
X147570057Y-79714285D01*
X147570057Y-79714285D02*
X147665295Y-79666666D01*
X147665295Y-79666666D02*
X147808152Y-79666666D01*
X147808152Y-79666666D02*
X147903390Y-79714285D01*
X147903390Y-79714285D02*
X147951009Y-79761904D01*
X147951009Y-79761904D02*
X147998628Y-79857142D01*
X147998628Y-79857142D02*
X147998628Y-80238094D01*
X147570057Y-79285713D02*
X147522438Y-79238094D01*
X147522438Y-79238094D02*
X147474819Y-79142856D01*
X147474819Y-79142856D02*
X147474819Y-78904761D01*
X147474819Y-78904761D02*
X147522438Y-78809523D01*
X147522438Y-78809523D02*
X147570057Y-78761904D01*
X147570057Y-78761904D02*
X147665295Y-78714285D01*
X147665295Y-78714285D02*
X147760533Y-78714285D01*
X147760533Y-78714285D02*
X147903390Y-78761904D01*
X147903390Y-78761904D02*
X148474819Y-79333332D01*
X148474819Y-79333332D02*
X148474819Y-78714285D01*
X139824819Y-79566666D02*
X139348628Y-79899999D01*
X139824819Y-80138094D02*
X138824819Y-80138094D01*
X138824819Y-80138094D02*
X138824819Y-79757142D01*
X138824819Y-79757142D02*
X138872438Y-79661904D01*
X138872438Y-79661904D02*
X138920057Y-79614285D01*
X138920057Y-79614285D02*
X139015295Y-79566666D01*
X139015295Y-79566666D02*
X139158152Y-79566666D01*
X139158152Y-79566666D02*
X139253390Y-79614285D01*
X139253390Y-79614285D02*
X139301009Y-79661904D01*
X139301009Y-79661904D02*
X139348628Y-79757142D01*
X139348628Y-79757142D02*
X139348628Y-80138094D01*
X139158152Y-78709523D02*
X139824819Y-78709523D01*
X138777200Y-78947618D02*
X139491485Y-79185713D01*
X139491485Y-79185713D02*
X139491485Y-78566666D01*
D11*
X147772690Y-85103479D02*
X147772690Y-85617526D01*
X147772690Y-85617526D02*
X147802928Y-85678002D01*
X147802928Y-85678002D02*
X147833166Y-85708241D01*
X147833166Y-85708241D02*
X147893642Y-85738479D01*
X147893642Y-85738479D02*
X148014595Y-85738479D01*
X148014595Y-85738479D02*
X148075071Y-85708241D01*
X148075071Y-85708241D02*
X148105309Y-85678002D01*
X148105309Y-85678002D02*
X148135547Y-85617526D01*
X148135547Y-85617526D02*
X148135547Y-85103479D01*
X148407690Y-85163955D02*
X148437928Y-85133717D01*
X148437928Y-85133717D02*
X148498404Y-85103479D01*
X148498404Y-85103479D02*
X148649595Y-85103479D01*
X148649595Y-85103479D02*
X148710071Y-85133717D01*
X148710071Y-85133717D02*
X148740309Y-85163955D01*
X148740309Y-85163955D02*
X148770547Y-85224431D01*
X148770547Y-85224431D02*
X148770547Y-85284907D01*
X148770547Y-85284907D02*
X148740309Y-85375621D01*
X148740309Y-85375621D02*
X148377452Y-85738479D01*
X148377452Y-85738479D02*
X148770547Y-85738479D01*
%TO.C,R3*%
D12*
X142870000Y-77530000D02*
X142870000Y-81370000D01*
X141030000Y-77530000D02*
X141030000Y-81370000D01*
%TO.C,D2*%
D13*
X129130428Y-85699106D02*
X129130428Y-88831106D01*
X129130428Y-85699106D02*
G75*
G02*
X129130428Y-88831106I2506124J-1566000D01*
G01*
D14*
X128530428Y-87265106D02*
G75*
G02*
X128330428Y-87265106I-100000J0D01*
G01*
X128330428Y-87265106D02*
G75*
G02*
X128530428Y-87265106I100000J0D01*
G01*
%TO.C,D1*%
X128530428Y-79800000D02*
G75*
G02*
X128330428Y-79800000I-100000J0D01*
G01*
X128330428Y-79800000D02*
G75*
G02*
X128530428Y-79800000I100000J0D01*
G01*
D13*
X129130428Y-78234000D02*
G75*
G02*
X129130428Y-81366000I2506124J-1566000D01*
G01*
X129130428Y-78234000D02*
X129130428Y-81366000D01*
%TO.C,DS1*%
X126200000Y-107750000D02*
X161700000Y-107750000D01*
X126200000Y-141450000D02*
X126200000Y-107750000D01*
X161700000Y-107750000D02*
X161700000Y-141450000D01*
X161700000Y-141450000D02*
X126200000Y-141450000D01*
D14*
X140240000Y-107200000D02*
G75*
G02*
X140040000Y-107200000I-100000J0D01*
G01*
X140040000Y-107200000D02*
G75*
G02*
X140240000Y-107200000I100000J0D01*
G01*
%TO.C,D4*%
D13*
X129130428Y-100629318D02*
X129130428Y-103761318D01*
X129130428Y-100629318D02*
G75*
G02*
X129130428Y-103761318I2506124J-1566000D01*
G01*
D14*
X128530428Y-102195318D02*
G75*
G02*
X128330428Y-102195318I-100000J0D01*
G01*
X128330428Y-102195318D02*
G75*
G02*
X128530428Y-102195318I100000J0D01*
G01*
%TO.C,U1*%
D15*
X154420709Y-79900000D02*
G75*
G02*
X154279291Y-79900000I-70709J0D01*
G01*
X154279291Y-79900000D02*
G75*
G02*
X154420709Y-79900000I70709J0D01*
G01*
%TO.C,D3*%
D13*
X129130428Y-93164212D02*
X129130428Y-96296212D01*
X129130428Y-93164212D02*
G75*
G02*
X129130428Y-96296212I2506124J-1566000D01*
G01*
D14*
X128530428Y-94730212D02*
G75*
G02*
X128330428Y-94730212I-100000J0D01*
G01*
X128330428Y-94730212D02*
G75*
G02*
X128530428Y-94730212I100000J0D01*
G01*
%TO.C,R1*%
D12*
X150870000Y-77540000D02*
X150870000Y-81380000D01*
X149030000Y-77540000D02*
X149030000Y-81380000D01*
%TO.C,R2*%
X147020000Y-77580000D02*
X147020000Y-81420000D01*
X145180000Y-77580000D02*
X145180000Y-81420000D01*
%TO.C,R4*%
X138370000Y-77480000D02*
X138370000Y-81320000D01*
X136530000Y-77480000D02*
X136530000Y-81320000D01*
%TO.C,U2*%
D16*
X158053500Y-87893000D02*
G75*
G02*
X157549500Y-87893000I-252000J0D01*
G01*
X157549500Y-87893000D02*
G75*
G02*
X158053500Y-87893000I252000J0D01*
G01*
X158933500Y-86750000D02*
G75*
G02*
X158429500Y-86750000I-252000J0D01*
G01*
X158429500Y-86750000D02*
G75*
G02*
X158933500Y-86750000I252000J0D01*
G01*
D13*
X139872500Y-104590000D02*
G75*
G02*
X137967500Y-102685000I1J1905001D01*
G01*
X158922500Y-102685000D02*
G75*
G02*
X157017500Y-104590000I-1905000J0D01*
G01*
X160332500Y-99704000D02*
G75*
G02*
X159832500Y-100204000I-500000J0D01*
G01*
X159832772Y-91208728D02*
G75*
G02*
X160332472Y-91708728I-272J-499972D01*
G01*
X137967500Y-88715000D02*
G75*
G02*
X139872500Y-86810000I1905001J-1D01*
G01*
X157017500Y-86810000D02*
G75*
G02*
X158922500Y-88715000I0J-1905000D01*
G01*
X139872500Y-104590000D02*
X157017500Y-104590000D01*
X158922500Y-102685000D02*
X158922500Y-88715000D01*
D17*
X158922500Y-102685000D02*
X158922500Y-88715000D01*
D13*
X159832500Y-100204000D02*
X158922500Y-100204000D01*
X160332500Y-91708728D02*
X160332500Y-99704000D01*
X158922500Y-91205000D02*
X159832772Y-91208728D01*
X137967500Y-88715000D02*
X137967500Y-102685000D01*
X139872500Y-86810000D02*
X157017500Y-86810000D01*
%TD*%
M02*
