%TF.GenerationSoftware,KiCad,Pcbnew,10.0.1*%
%TF.CreationDate,2026-04-24T15:57:56+02:00*%
%TF.ProjectId,Untitled,556e7469-746c-4656-942e-6b696361645f,rev?*%
%TF.SameCoordinates,Original*%
%TF.FileFunction,Copper,L1,Top*%
%TF.FilePolarity,Positive*%
%FSLAX46Y46*%
G04 Gerber Fmt 4.6, Leading zero omitted, Abs format (unit mm)*
G04 Created by KiCad (PCBNEW 10.0.1) date 2026-04-24 15:57:56*
%MOMM*%
%LPD*%
G01*
G04 APERTURE LIST*
G04 Aperture macros list*
%AMRoundRect*
0 Rectangle with rounded corners*
0 $1 Rounding radius*
0 $2 $3 $4 $5 $6 $7 $8 $9 X,Y pos of 4 corners*
0 Add a 4 corners polygon primitive as box body*
4,1,4,$2,$3,$4,$5,$6,$7,$8,$9,$2,$3,0*
0 Add four circle primitives for the rounded corners*
1,1,$1+$1,$2,$3*
1,1,$1+$1,$4,$5*
1,1,$1+$1,$6,$7*
1,1,$1+$1,$8,$9*
0 Add four rect primitives between the rounded corners*
20,1,$1+$1,$2,$3,$4,$5,0*
20,1,$1+$1,$4,$5,$6,$7,0*
20,1,$1+$1,$6,$7,$8,$9,0*
20,1,$1+$1,$8,$9,$2,$3,0*%
G04 Aperture macros list end*
%TA.AperFunction,ComponentPad*%
%ADD10C,1.400000*%
%TD*%
%TA.AperFunction,ComponentPad*%
%ADD11C,1.815000*%
%TD*%
%TA.AperFunction,ComponentPad*%
%ADD12R,1.815000X1.815000*%
%TD*%
%TA.AperFunction,ComponentPad*%
%ADD13R,1.508000X1.508000*%
%TD*%
%TA.AperFunction,ComponentPad*%
%ADD14C,1.508000*%
%TD*%
%TA.AperFunction,SMDPad,CuDef*%
%ADD15R,0.600000X0.300000*%
%TD*%
%TA.AperFunction,SMDPad,CuDef*%
%ADD16R,0.300000X0.600000*%
%TD*%
%TA.AperFunction,SMDPad,CuDef*%
%ADD17RoundRect,0.152400X-0.609600X1.063600X-0.609600X-1.063600X0.609600X-1.063600X0.609600X1.063600X0*%
%TD*%
%TA.AperFunction,ComponentPad*%
%ADD18C,1.524000*%
%TD*%
%TA.AperFunction,SMDPad,CuDef*%
%ADD19RoundRect,0.152400X0.609600X-1.063600X0.609600X1.063600X-0.609600X1.063600X-0.609600X-1.063600X0*%
%TD*%
%TA.AperFunction,ViaPad*%
%ADD20C,0.600000*%
%TD*%
%TA.AperFunction,Conductor*%
%ADD21C,0.200000*%
%TD*%
G04 APERTURE END LIST*
D10*
%TO.P,R3,1*%
%TO.N,Net-(D3-PadA)*%
X141950000Y-76910000D03*
%TO.P,R3,2*%
%TO.N,LED3*%
X141950000Y-81990000D03*
%TD*%
D11*
%TO.P,D2,A*%
%TO.N,Net-(D2-PadA)*%
X132900428Y-87265106D03*
D12*
%TO.P,D2,C*%
%TO.N,3.3V*%
X130360428Y-87265106D03*
%TD*%
%TO.P,D1,C*%
%TO.N,3.3V*%
X130360428Y-79800000D03*
D11*
%TO.P,D1,A*%
%TO.N,Net-(D1-PadA)*%
X132900428Y-79800000D03*
%TD*%
D13*
%TO.P,DS1,1,VDD_1*%
%TO.N,3.3V*%
X140140000Y-109050000D03*
D14*
%TO.P,DS1,2,GND_2*%
X142680000Y-109050000D03*
%TO.P,DS1,3,SCK_3*%
%TO.N,SCL*%
X145220000Y-109050000D03*
%TO.P,DS1,4,SDA_4*%
%TO.N,SDA*%
X147760000Y-109050000D03*
%TD*%
D11*
%TO.P,D4,A*%
%TO.N,Net-(D4-PadA)*%
X132900428Y-102195318D03*
D12*
%TO.P,D4,C*%
%TO.N,3.3V*%
X130360428Y-102195318D03*
%TD*%
D15*
%TO.P,U1,1,VDDIO_1*%
%TO.N,3.3V*%
X155150000Y-79900000D03*
%TO.P,U1,2,BYP_2*%
X155150000Y-80400000D03*
%TO.P,U1,3*%
%TO.N,N/C*%
X155150000Y-80900000D03*
%TO.P,U1,4,SCL_4*%
%TO.N,SCL*%
X155150000Y-81400000D03*
%TO.P,U1,5,GND_5*%
%TO.N,3.3V*%
X155150000Y-81900000D03*
D16*
%TO.P,U1,6,SDA_6*%
%TO.N,SDA*%
X155850000Y-82100000D03*
%TO.P,U1,7,SA0_7*%
%TO.N,3.3V*%
X156350000Y-82100000D03*
%TO.P,U1,8*%
%TO.N,N/C*%
X156850000Y-82100000D03*
D15*
%TO.P,U1,9,INT2_9*%
%TO.N,unconnected-(U1-INT2-Pad9)*%
X157550000Y-81900000D03*
%TO.P,U1,10,GND@1_10*%
%TO.N,unconnected-(U1-GND@1-Pad10)*%
X157550000Y-81400000D03*
%TO.P,U1,11,INT1_11*%
%TO.N,INTERRUPT*%
X157550000Y-80900000D03*
%TO.P,U1,12,GND@2_12*%
%TO.N,unconnected-(U1-GND@2-Pad12)*%
X157550000Y-80400000D03*
%TO.P,U1,13*%
%TO.N,N/C*%
X157550000Y-79900000D03*
D16*
%TO.P,U1,14,VDD_14*%
%TO.N,3.3V*%
X156850000Y-79700000D03*
%TO.P,U1,15*%
%TO.N,N/C*%
X156350000Y-79700000D03*
%TO.P,U1,16*%
X155850000Y-79700000D03*
%TD*%
D11*
%TO.P,D3,A*%
%TO.N,Net-(D3-PadA)*%
X132900428Y-94730212D03*
D12*
%TO.P,D3,C*%
%TO.N,3.3V*%
X130360428Y-94730212D03*
%TD*%
D10*
%TO.P,R1,1*%
%TO.N,Net-(D1-PadA)*%
X149950000Y-76920000D03*
%TO.P,R1,2*%
%TO.N,LED1*%
X149950000Y-82000000D03*
%TD*%
%TO.P,R2,1*%
%TO.N,Net-(D2-PadA)*%
X146100000Y-76960000D03*
%TO.P,R2,2*%
%TO.N,LED2*%
X146100000Y-82040000D03*
%TD*%
%TO.P,R4,1*%
%TO.N,Net-(D4-PadA)*%
X137450000Y-76860000D03*
%TO.P,R4,2*%
%TO.N,LED4*%
X137450000Y-81940000D03*
%TD*%
D17*
%TO.P,U2,14,VBUS_14*%
%TO.N,unconnected-(U2-VBUS-Pad14)*%
X156001500Y-104155000D03*
D18*
X156001500Y-103320000D03*
D17*
%TO.P,U2,13,GND_13*%
%TO.N,3.3V*%
X153461500Y-104155000D03*
D18*
X153461500Y-103320000D03*
D17*
%TO.P,U2,12,3V3_12*%
X150921500Y-104155000D03*
D18*
X150921500Y-103320000D03*
D17*
%TO.P,U2,11,P3_D10_MOSI_11*%
%TO.N,unconnected-(U2-P3_D10_MOSI-Pad11)*%
X148381500Y-104155000D03*
D18*
X148381500Y-103320000D03*
D17*
%TO.P,U2,10,P4_D9_MISO_10*%
%TO.N,unconnected-(U2-P4_D9_MISO-Pad10)*%
X145841500Y-104155000D03*
D18*
X145841500Y-103320000D03*
D17*
%TO.P,U2,9,P2_D8_SCK_9*%
%TO.N,unconnected-(U2-P2_D8_SCK-Pad9)*%
X143301500Y-104155000D03*
D18*
X143301500Y-103320000D03*
D17*
%TO.P,U2,8,P1_D7_RX_8*%
%TO.N,unconnected-(U2-P1_D7_RX-Pad8)*%
X140761500Y-104155000D03*
D18*
X140761500Y-103320000D03*
%TO.P,U2,7,P0_D6_TX_7*%
%TO.N,INTERRUPT*%
X140761500Y-88080000D03*
D19*
X140761500Y-87245000D03*
D18*
%TO.P,U2,6,P7_SCL_D5_6*%
%TO.N,SCL*%
X143301500Y-88080000D03*
D19*
X143301500Y-87245000D03*
D18*
%TO.P,U2,5,P6_SDA_D4_5*%
%TO.N,SDA*%
X145841500Y-88080000D03*
D19*
X145841500Y-87245000D03*
D18*
%TO.P,U2,4,P29_A3_D3_4*%
%TO.N,LED4*%
X148381500Y-88080000D03*
D19*
X148381500Y-87245000D03*
D18*
%TO.P,U2,3,P28_A2_D2_3*%
%TO.N,LED3*%
X150921500Y-88080000D03*
D19*
X150921500Y-87245000D03*
D18*
%TO.P,U2,2,P27_A1_D1_2*%
%TO.N,LED2*%
X153461500Y-88080000D03*
D19*
X153461500Y-87245000D03*
D18*
%TO.P,U2,1,P26_A0_D0_1*%
%TO.N,LED1*%
X156001500Y-88080000D03*
D19*
X156001500Y-87245000D03*
%TD*%
D20*
%TO.N,3.3V*%
X153550000Y-82200000D03*
X153550000Y-80400000D03*
%TO.N,SCL*%
X143500000Y-84300000D03*
X151500000Y-82500000D03*
%TO.N,SDA*%
X155950002Y-81300000D03*
X145841500Y-87085500D03*
%TO.N,INTERRUPT*%
X159100000Y-85100000D03*
%TO.N,Net-(D4-PadA)*%
X137300000Y-84700000D03*
%TD*%
%TO.N,3.3V*%
D21*
X155150000Y-80400000D02*
X153550000Y-80400000D01*
X154850000Y-82200000D02*
X155150000Y-81900000D01*
X153550000Y-82200000D02*
X154850000Y-82200000D01*
%TO.N,SCL*%
X155150000Y-81400000D02*
X152600000Y-81400000D01*
X152600000Y-81400000D02*
X151500000Y-82500000D01*
X143500000Y-84300000D02*
X143301500Y-84498500D01*
X143301500Y-84498500D02*
X143301500Y-87245000D01*
%TO.N,SDA*%
X155850000Y-81400002D02*
X155950002Y-81300000D01*
X155850000Y-82100000D02*
X155850000Y-81400002D01*
%TO.N,3.3V*%
X156350000Y-82100000D02*
X156350000Y-82650000D01*
X156350000Y-82650000D02*
X156300000Y-82700000D01*
X156300000Y-82700000D02*
X155400000Y-82700000D01*
X155400000Y-82700000D02*
X155150000Y-82450000D01*
X155150000Y-82450000D02*
X155150000Y-81900000D01*
X155150000Y-80400000D02*
X155150000Y-79900000D01*
X156850000Y-79700000D02*
X156850000Y-79150000D01*
X156800000Y-79100000D02*
X155400000Y-79100000D01*
X156850000Y-79150000D02*
X156800000Y-79100000D01*
X155400000Y-79100000D02*
X155150000Y-79350000D01*
X155150000Y-79350000D02*
X155150000Y-79900000D01*
%TO.N,INTERRUPT*%
X159100000Y-81900000D02*
X159100000Y-85100000D01*
X158100000Y-80900000D02*
X159100000Y-81900000D01*
X157550000Y-80900000D02*
X158100000Y-80900000D01*
%TO.N,3.3V*%
X156350000Y-82100000D02*
X156350000Y-85276286D01*
X156350000Y-85276286D02*
X157063500Y-85989786D01*
X157063500Y-85989786D02*
X157063500Y-99718000D01*
X157063500Y-99718000D02*
X153461500Y-103320000D01*
X150921500Y-103320000D02*
X153461500Y-103320000D01*
%TO.N,LED1*%
X149950000Y-82000000D02*
X151112500Y-83162500D01*
X151112500Y-83162500D02*
X151919000Y-83162500D01*
X151919000Y-83162500D02*
X156001500Y-87245000D01*
%TO.N,LED2*%
X146100000Y-82040000D02*
X148256500Y-82040000D01*
X148256500Y-82040000D02*
X153461500Y-87245000D01*
%TO.N,LED3*%
X141950000Y-81990000D02*
X143850000Y-81990000D01*
X143850000Y-81990000D02*
X147589000Y-85729000D01*
X147589000Y-85729000D02*
X149405500Y-85729000D01*
X149405500Y-85729000D02*
X150921500Y-87245000D01*
%TO.N,LED4*%
X137450000Y-81940000D02*
X138550000Y-83040000D01*
X138550000Y-83040000D02*
X144176500Y-83040000D01*
X144176500Y-83040000D02*
X148381500Y-87245000D01*
%TO.N,Net-(D4-PadA)*%
X132900428Y-102195318D02*
X137300000Y-97795746D01*
X137300000Y-97795746D02*
X137300000Y-84700000D01*
%TO.N,Net-(D3-PadA)*%
X132900428Y-94730212D02*
X131692928Y-93522712D01*
X131692928Y-93522712D02*
X131692928Y-85717172D01*
X140500100Y-76910000D02*
X141950000Y-76910000D01*
X131692928Y-85717172D02*
X140500100Y-76910000D01*
%TO.N,Net-(D2-PadA)*%
X132900428Y-87265106D02*
X132900428Y-85075358D01*
X132900428Y-85075358D02*
X140065786Y-77910000D01*
X145150000Y-77910000D02*
X146100000Y-76960000D01*
X140065786Y-77910000D02*
X145150000Y-77910000D01*
%TO.N,Net-(D1-PadA)*%
X132900428Y-79800000D02*
X137800428Y-74900000D01*
X137800428Y-74900000D02*
X147930000Y-74900000D01*
X147930000Y-74900000D02*
X149950000Y-76920000D01*
%TO.N,3.3V*%
X142680000Y-109050000D02*
X143734000Y-107996000D01*
X143734000Y-107996000D02*
X147080500Y-107996000D01*
X147080500Y-107996000D02*
X150921500Y-104155000D01*
X140140000Y-109050000D02*
X142680000Y-109050000D01*
X130360428Y-102195318D02*
X137215110Y-109050000D01*
X137215110Y-109050000D02*
X140140000Y-109050000D01*
X130360428Y-87265106D02*
X130360428Y-79800000D01*
X130360428Y-94730212D02*
X130360428Y-87265106D01*
X130360428Y-102195318D02*
X130360428Y-94730212D01*
%TD*%
M02*
