%TF.GenerationSoftware,KiCad,Pcbnew,10.0.1*%
%TF.CreationDate,2026-06-11T16:06:04+02:00*%
%TF.ProjectId,Untitled,556e7469-746c-4656-942e-6b696361645f,rev?*%
%TF.SameCoordinates,Original*%
%TF.FileFunction,Legend,Top*%
%TF.FilePolarity,Positive*%
%FSLAX46Y46*%
G04 Gerber Fmt 4.6, Leading zero omitted, Abs format (unit mm)*
G04 Created by KiCad (PCBNEW 10.0.1) date 2026-06-11 16:06:04*
%MOMM*%
%LPD*%
G01*
G04 APERTURE LIST*
%ADD10C,0.150000*%
%ADD11C,0.101600*%
%ADD12C,0.120000*%
%ADD13C,0.127000*%
%ADD14C,0.200000*%
%ADD15C,0.100000*%
%ADD16C,0.504000*%
%ADD17C,0.141419*%
G04 APERTURE END LIST*
D10*
X137254819Y-94816666D02*
X136778628Y-95149999D01*
X137254819Y-95388094D02*
X136254819Y-95388094D01*
X136254819Y-95388094D02*
X136254819Y-95007142D01*
X136254819Y-95007142D02*
X136302438Y-94911904D01*
X136302438Y-94911904D02*
X136350057Y-94864285D01*
X136350057Y-94864285D02*
X136445295Y-94816666D01*
X136445295Y-94816666D02*
X136588152Y-94816666D01*
X136588152Y-94816666D02*
X136683390Y-94864285D01*
X136683390Y-94864285D02*
X136731009Y-94911904D01*
X136731009Y-94911904D02*
X136778628Y-95007142D01*
X136778628Y-95007142D02*
X136778628Y-95388094D01*
X136254819Y-94483332D02*
X136254819Y-93864285D01*
X136254819Y-93864285D02*
X136635771Y-94197618D01*
X136635771Y-94197618D02*
X136635771Y-94054761D01*
X136635771Y-94054761D02*
X136683390Y-93959523D01*
X136683390Y-93959523D02*
X136731009Y-93911904D01*
X136731009Y-93911904D02*
X136826247Y-93864285D01*
X136826247Y-93864285D02*
X137064342Y-93864285D01*
X137064342Y-93864285D02*
X137159580Y-93911904D01*
X137159580Y-93911904D02*
X137207200Y-93959523D01*
X137207200Y-93959523D02*
X137254819Y-94054761D01*
X137254819Y-94054761D02*
X137254819Y-94340475D01*
X137254819Y-94340475D02*
X137207200Y-94435713D01*
X137207200Y-94435713D02*
X137159580Y-94483332D01*
X147283333Y-76159580D02*
X147235714Y-76207200D01*
X147235714Y-76207200D02*
X147092857Y-76254819D01*
X147092857Y-76254819D02*
X146997619Y-76254819D01*
X146997619Y-76254819D02*
X146854762Y-76207200D01*
X146854762Y-76207200D02*
X146759524Y-76111961D01*
X146759524Y-76111961D02*
X146711905Y-76016723D01*
X146711905Y-76016723D02*
X146664286Y-75826247D01*
X146664286Y-75826247D02*
X146664286Y-75683390D01*
X146664286Y-75683390D02*
X146711905Y-75492914D01*
X146711905Y-75492914D02*
X146759524Y-75397676D01*
X146759524Y-75397676D02*
X146854762Y-75302438D01*
X146854762Y-75302438D02*
X146997619Y-75254819D01*
X146997619Y-75254819D02*
X147092857Y-75254819D01*
X147092857Y-75254819D02*
X147235714Y-75302438D01*
X147235714Y-75302438D02*
X147283333Y-75350057D01*
X148235714Y-76254819D02*
X147664286Y-76254819D01*
X147950000Y-76254819D02*
X147950000Y-75254819D01*
X147950000Y-75254819D02*
X147854762Y-75397676D01*
X147854762Y-75397676D02*
X147759524Y-75492914D01*
X147759524Y-75492914D02*
X147664286Y-75540533D01*
X130259580Y-98111554D02*
X130307200Y-98159173D01*
X130307200Y-98159173D02*
X130354819Y-98302030D01*
X130354819Y-98302030D02*
X130354819Y-98397268D01*
X130354819Y-98397268D02*
X130307200Y-98540125D01*
X130307200Y-98540125D02*
X130211961Y-98635363D01*
X130211961Y-98635363D02*
X130116723Y-98682982D01*
X130116723Y-98682982D02*
X129926247Y-98730601D01*
X129926247Y-98730601D02*
X129783390Y-98730601D01*
X129783390Y-98730601D02*
X129592914Y-98682982D01*
X129592914Y-98682982D02*
X129497676Y-98635363D01*
X129497676Y-98635363D02*
X129402438Y-98540125D01*
X129402438Y-98540125D02*
X129354819Y-98397268D01*
X129354819Y-98397268D02*
X129354819Y-98302030D01*
X129354819Y-98302030D02*
X129402438Y-98159173D01*
X129402438Y-98159173D02*
X129450057Y-98111554D01*
X129354819Y-97778220D02*
X129354819Y-97159173D01*
X129354819Y-97159173D02*
X129735771Y-97492506D01*
X129735771Y-97492506D02*
X129735771Y-97349649D01*
X129735771Y-97349649D02*
X129783390Y-97254411D01*
X129783390Y-97254411D02*
X129831009Y-97206792D01*
X129831009Y-97206792D02*
X129926247Y-97159173D01*
X129926247Y-97159173D02*
X130164342Y-97159173D01*
X130164342Y-97159173D02*
X130259580Y-97206792D01*
X130259580Y-97206792D02*
X130307200Y-97254411D01*
X130307200Y-97254411D02*
X130354819Y-97349649D01*
X130354819Y-97349649D02*
X130354819Y-97635363D01*
X130354819Y-97635363D02*
X130307200Y-97730601D01*
X130307200Y-97730601D02*
X130259580Y-97778220D01*
X131079952Y-83919401D02*
X131079952Y-83119401D01*
X131079952Y-83119401D02*
X131270428Y-83119401D01*
X131270428Y-83119401D02*
X131384714Y-83157496D01*
X131384714Y-83157496D02*
X131460904Y-83233686D01*
X131460904Y-83233686D02*
X131498999Y-83309877D01*
X131498999Y-83309877D02*
X131537095Y-83462258D01*
X131537095Y-83462258D02*
X131537095Y-83576544D01*
X131537095Y-83576544D02*
X131498999Y-83728925D01*
X131498999Y-83728925D02*
X131460904Y-83805115D01*
X131460904Y-83805115D02*
X131384714Y-83881306D01*
X131384714Y-83881306D02*
X131270428Y-83919401D01*
X131270428Y-83919401D02*
X131079952Y-83919401D01*
X131841856Y-83195591D02*
X131879952Y-83157496D01*
X131879952Y-83157496D02*
X131956142Y-83119401D01*
X131956142Y-83119401D02*
X132146618Y-83119401D01*
X132146618Y-83119401D02*
X132222809Y-83157496D01*
X132222809Y-83157496D02*
X132260904Y-83195591D01*
X132260904Y-83195591D02*
X132298999Y-83271782D01*
X132298999Y-83271782D02*
X132298999Y-83347972D01*
X132298999Y-83347972D02*
X132260904Y-83462258D01*
X132260904Y-83462258D02*
X131803761Y-83919401D01*
X131803761Y-83919401D02*
X132298999Y-83919401D01*
X131079952Y-76454295D02*
X131079952Y-75654295D01*
X131079952Y-75654295D02*
X131270428Y-75654295D01*
X131270428Y-75654295D02*
X131384714Y-75692390D01*
X131384714Y-75692390D02*
X131460904Y-75768580D01*
X131460904Y-75768580D02*
X131498999Y-75844771D01*
X131498999Y-75844771D02*
X131537095Y-75997152D01*
X131537095Y-75997152D02*
X131537095Y-76111438D01*
X131537095Y-76111438D02*
X131498999Y-76263819D01*
X131498999Y-76263819D02*
X131460904Y-76340009D01*
X131460904Y-76340009D02*
X131384714Y-76416200D01*
X131384714Y-76416200D02*
X131270428Y-76454295D01*
X131270428Y-76454295D02*
X131079952Y-76454295D01*
X132298999Y-76454295D02*
X131841856Y-76454295D01*
X132070428Y-76454295D02*
X132070428Y-75654295D01*
X132070428Y-75654295D02*
X131994237Y-75768580D01*
X131994237Y-75768580D02*
X131918047Y-75844771D01*
X131918047Y-75844771D02*
X131841856Y-75882866D01*
X128160714Y-107169819D02*
X128160714Y-106169819D01*
X128160714Y-106169819D02*
X128398809Y-106169819D01*
X128398809Y-106169819D02*
X128541666Y-106217438D01*
X128541666Y-106217438D02*
X128636904Y-106312676D01*
X128636904Y-106312676D02*
X128684523Y-106407914D01*
X128684523Y-106407914D02*
X128732142Y-106598390D01*
X128732142Y-106598390D02*
X128732142Y-106741247D01*
X128732142Y-106741247D02*
X128684523Y-106931723D01*
X128684523Y-106931723D02*
X128636904Y-107026961D01*
X128636904Y-107026961D02*
X128541666Y-107122200D01*
X128541666Y-107122200D02*
X128398809Y-107169819D01*
X128398809Y-107169819D02*
X128160714Y-107169819D01*
X129113095Y-107122200D02*
X129255952Y-107169819D01*
X129255952Y-107169819D02*
X129494047Y-107169819D01*
X129494047Y-107169819D02*
X129589285Y-107122200D01*
X129589285Y-107122200D02*
X129636904Y-107074580D01*
X129636904Y-107074580D02*
X129684523Y-106979342D01*
X129684523Y-106979342D02*
X129684523Y-106884104D01*
X129684523Y-106884104D02*
X129636904Y-106788866D01*
X129636904Y-106788866D02*
X129589285Y-106741247D01*
X129589285Y-106741247D02*
X129494047Y-106693628D01*
X129494047Y-106693628D02*
X129303571Y-106646009D01*
X129303571Y-106646009D02*
X129208333Y-106598390D01*
X129208333Y-106598390D02*
X129160714Y-106550771D01*
X129160714Y-106550771D02*
X129113095Y-106455533D01*
X129113095Y-106455533D02*
X129113095Y-106360295D01*
X129113095Y-106360295D02*
X129160714Y-106265057D01*
X129160714Y-106265057D02*
X129208333Y-106217438D01*
X129208333Y-106217438D02*
X129303571Y-106169819D01*
X129303571Y-106169819D02*
X129541666Y-106169819D01*
X129541666Y-106169819D02*
X129684523Y-106217438D01*
X130636904Y-107169819D02*
X130065476Y-107169819D01*
X130351190Y-107169819D02*
X130351190Y-106169819D01*
X130351190Y-106169819D02*
X130255952Y-106312676D01*
X130255952Y-106312676D02*
X130160714Y-106407914D01*
X130160714Y-106407914D02*
X130065476Y-106455533D01*
X131079952Y-98849613D02*
X131079952Y-98049613D01*
X131079952Y-98049613D02*
X131270428Y-98049613D01*
X131270428Y-98049613D02*
X131384714Y-98087708D01*
X131384714Y-98087708D02*
X131460904Y-98163898D01*
X131460904Y-98163898D02*
X131498999Y-98240089D01*
X131498999Y-98240089D02*
X131537095Y-98392470D01*
X131537095Y-98392470D02*
X131537095Y-98506756D01*
X131537095Y-98506756D02*
X131498999Y-98659137D01*
X131498999Y-98659137D02*
X131460904Y-98735327D01*
X131460904Y-98735327D02*
X131384714Y-98811518D01*
X131384714Y-98811518D02*
X131270428Y-98849613D01*
X131270428Y-98849613D02*
X131079952Y-98849613D01*
X132222809Y-98316279D02*
X132222809Y-98849613D01*
X132032333Y-98011518D02*
X131841856Y-98582946D01*
X131841856Y-98582946D02*
X132337095Y-98582946D01*
D11*
X139123479Y-96378809D02*
X139637526Y-96378809D01*
X139637526Y-96378809D02*
X139698002Y-96348571D01*
X139698002Y-96348571D02*
X139728241Y-96318333D01*
X139728241Y-96318333D02*
X139758479Y-96257857D01*
X139758479Y-96257857D02*
X139758479Y-96136904D01*
X139758479Y-96136904D02*
X139728241Y-96076428D01*
X139728241Y-96076428D02*
X139698002Y-96046190D01*
X139698002Y-96046190D02*
X139637526Y-96015952D01*
X139637526Y-96015952D02*
X139123479Y-96015952D01*
X139183955Y-95743809D02*
X139153717Y-95713571D01*
X139153717Y-95713571D02*
X139123479Y-95653095D01*
X139123479Y-95653095D02*
X139123479Y-95501904D01*
X139123479Y-95501904D02*
X139153717Y-95441428D01*
X139153717Y-95441428D02*
X139183955Y-95411190D01*
X139183955Y-95411190D02*
X139244431Y-95380952D01*
X139244431Y-95380952D02*
X139304907Y-95380952D01*
X139304907Y-95380952D02*
X139395621Y-95411190D01*
X139395621Y-95411190D02*
X139758479Y-95774047D01*
X139758479Y-95774047D02*
X139758479Y-95380952D01*
D10*
X142828547Y-76153875D02*
X142828547Y-76964821D01*
X142828547Y-76964821D02*
X142876250Y-77060226D01*
X142876250Y-77060226D02*
X142923952Y-77107929D01*
X142923952Y-77107929D02*
X143019358Y-77155631D01*
X143019358Y-77155631D02*
X143210168Y-77155631D01*
X143210168Y-77155631D02*
X143305574Y-77107929D01*
X143305574Y-77107929D02*
X143353276Y-77060226D01*
X143353276Y-77060226D02*
X143400979Y-76964821D01*
X143400979Y-76964821D02*
X143400979Y-76153875D01*
X144402735Y-77155631D02*
X143830303Y-77155631D01*
X144116519Y-77155631D02*
X144116519Y-76153875D01*
X144116519Y-76153875D02*
X144021114Y-76296983D01*
X144021114Y-76296983D02*
X143925709Y-76392389D01*
X143925709Y-76392389D02*
X143830303Y-76440091D01*
X131079952Y-91384507D02*
X131079952Y-90584507D01*
X131079952Y-90584507D02*
X131270428Y-90584507D01*
X131270428Y-90584507D02*
X131384714Y-90622602D01*
X131384714Y-90622602D02*
X131460904Y-90698792D01*
X131460904Y-90698792D02*
X131498999Y-90774983D01*
X131498999Y-90774983D02*
X131537095Y-90927364D01*
X131537095Y-90927364D02*
X131537095Y-91041650D01*
X131537095Y-91041650D02*
X131498999Y-91194031D01*
X131498999Y-91194031D02*
X131460904Y-91270221D01*
X131460904Y-91270221D02*
X131384714Y-91346412D01*
X131384714Y-91346412D02*
X131270428Y-91384507D01*
X131270428Y-91384507D02*
X131079952Y-91384507D01*
X131803761Y-90584507D02*
X132298999Y-90584507D01*
X132298999Y-90584507D02*
X132032333Y-90889269D01*
X132032333Y-90889269D02*
X132146618Y-90889269D01*
X132146618Y-90889269D02*
X132222809Y-90927364D01*
X132222809Y-90927364D02*
X132260904Y-90965459D01*
X132260904Y-90965459D02*
X132298999Y-91041650D01*
X132298999Y-91041650D02*
X132298999Y-91232126D01*
X132298999Y-91232126D02*
X132260904Y-91308316D01*
X132260904Y-91308316D02*
X132222809Y-91346412D01*
X132222809Y-91346412D02*
X132146618Y-91384507D01*
X132146618Y-91384507D02*
X131918047Y-91384507D01*
X131918047Y-91384507D02*
X131841856Y-91346412D01*
X131841856Y-91346412D02*
X131803761Y-91308316D01*
X137204819Y-80366666D02*
X136728628Y-80699999D01*
X137204819Y-80938094D02*
X136204819Y-80938094D01*
X136204819Y-80938094D02*
X136204819Y-80557142D01*
X136204819Y-80557142D02*
X136252438Y-80461904D01*
X136252438Y-80461904D02*
X136300057Y-80414285D01*
X136300057Y-80414285D02*
X136395295Y-80366666D01*
X136395295Y-80366666D02*
X136538152Y-80366666D01*
X136538152Y-80366666D02*
X136633390Y-80414285D01*
X136633390Y-80414285D02*
X136681009Y-80461904D01*
X136681009Y-80461904D02*
X136728628Y-80557142D01*
X136728628Y-80557142D02*
X136728628Y-80938094D01*
X137204819Y-79414285D02*
X137204819Y-79985713D01*
X137204819Y-79699999D02*
X136204819Y-79699999D01*
X136204819Y-79699999D02*
X136347676Y-79795237D01*
X136347676Y-79795237D02*
X136442914Y-79890475D01*
X136442914Y-79890475D02*
X136490533Y-79985713D01*
X137254819Y-87566666D02*
X136778628Y-87899999D01*
X137254819Y-88138094D02*
X136254819Y-88138094D01*
X136254819Y-88138094D02*
X136254819Y-87757142D01*
X136254819Y-87757142D02*
X136302438Y-87661904D01*
X136302438Y-87661904D02*
X136350057Y-87614285D01*
X136350057Y-87614285D02*
X136445295Y-87566666D01*
X136445295Y-87566666D02*
X136588152Y-87566666D01*
X136588152Y-87566666D02*
X136683390Y-87614285D01*
X136683390Y-87614285D02*
X136731009Y-87661904D01*
X136731009Y-87661904D02*
X136778628Y-87757142D01*
X136778628Y-87757142D02*
X136778628Y-88138094D01*
X136350057Y-87185713D02*
X136302438Y-87138094D01*
X136302438Y-87138094D02*
X136254819Y-87042856D01*
X136254819Y-87042856D02*
X136254819Y-86804761D01*
X136254819Y-86804761D02*
X136302438Y-86709523D01*
X136302438Y-86709523D02*
X136350057Y-86661904D01*
X136350057Y-86661904D02*
X136445295Y-86614285D01*
X136445295Y-86614285D02*
X136540533Y-86614285D01*
X136540533Y-86614285D02*
X136683390Y-86661904D01*
X136683390Y-86661904D02*
X137254819Y-87233332D01*
X137254819Y-87233332D02*
X137254819Y-86614285D01*
X137254819Y-102116666D02*
X136778628Y-102449999D01*
X137254819Y-102688094D02*
X136254819Y-102688094D01*
X136254819Y-102688094D02*
X136254819Y-102307142D01*
X136254819Y-102307142D02*
X136302438Y-102211904D01*
X136302438Y-102211904D02*
X136350057Y-102164285D01*
X136350057Y-102164285D02*
X136445295Y-102116666D01*
X136445295Y-102116666D02*
X136588152Y-102116666D01*
X136588152Y-102116666D02*
X136683390Y-102164285D01*
X136683390Y-102164285D02*
X136731009Y-102211904D01*
X136731009Y-102211904D02*
X136778628Y-102307142D01*
X136778628Y-102307142D02*
X136778628Y-102688094D01*
X136588152Y-101259523D02*
X137254819Y-101259523D01*
X136207200Y-101497618D02*
X136921485Y-101735713D01*
X136921485Y-101735713D02*
X136921485Y-101116666D01*
X153159580Y-82316666D02*
X153207200Y-82364285D01*
X153207200Y-82364285D02*
X153254819Y-82507142D01*
X153254819Y-82507142D02*
X153254819Y-82602380D01*
X153254819Y-82602380D02*
X153207200Y-82745237D01*
X153207200Y-82745237D02*
X153111961Y-82840475D01*
X153111961Y-82840475D02*
X153016723Y-82888094D01*
X153016723Y-82888094D02*
X152826247Y-82935713D01*
X152826247Y-82935713D02*
X152683390Y-82935713D01*
X152683390Y-82935713D02*
X152492914Y-82888094D01*
X152492914Y-82888094D02*
X152397676Y-82840475D01*
X152397676Y-82840475D02*
X152302438Y-82745237D01*
X152302438Y-82745237D02*
X152254819Y-82602380D01*
X152254819Y-82602380D02*
X152254819Y-82507142D01*
X152254819Y-82507142D02*
X152302438Y-82364285D01*
X152302438Y-82364285D02*
X152350057Y-82316666D01*
X152350057Y-81935713D02*
X152302438Y-81888094D01*
X152302438Y-81888094D02*
X152254819Y-81792856D01*
X152254819Y-81792856D02*
X152254819Y-81554761D01*
X152254819Y-81554761D02*
X152302438Y-81459523D01*
X152302438Y-81459523D02*
X152350057Y-81411904D01*
X152350057Y-81411904D02*
X152445295Y-81364285D01*
X152445295Y-81364285D02*
X152540533Y-81364285D01*
X152540533Y-81364285D02*
X152683390Y-81411904D01*
X152683390Y-81411904D02*
X153254819Y-81983332D01*
X153254819Y-81983332D02*
X153254819Y-81364285D01*
%TO.C,R3*%
D12*
X135880000Y-96570000D02*
X135880000Y-92730000D01*
X137720000Y-96570000D02*
X137720000Y-92730000D01*
%TO.C,C1*%
X146090113Y-77675000D02*
X146590113Y-77675000D01*
X146340113Y-77425000D02*
X146340113Y-77925000D01*
X148894888Y-76570000D02*
X148894888Y-78110000D01*
X148894888Y-80190000D02*
X148894888Y-81730000D01*
X148934888Y-76570000D02*
X148934888Y-78110000D01*
X148934888Y-80190000D02*
X148934888Y-81730000D01*
X148974888Y-76571000D02*
X148974888Y-78110000D01*
X148974888Y-80190000D02*
X148974888Y-81729000D01*
X149014888Y-76573000D02*
X149014888Y-78110000D01*
X149014888Y-80190000D02*
X149014888Y-81727000D01*
X149054888Y-76575000D02*
X149054888Y-78110000D01*
X149054888Y-80190000D02*
X149054888Y-81725000D01*
X149094888Y-76578000D02*
X149094888Y-78110000D01*
X149094888Y-80190000D02*
X149094888Y-81722000D01*
X149134888Y-76581000D02*
X149134888Y-78110000D01*
X149134888Y-80190000D02*
X149134888Y-81719000D01*
X149174888Y-76585000D02*
X149174888Y-78110000D01*
X149174888Y-80190000D02*
X149174888Y-81715000D01*
X149214888Y-76590000D02*
X149214888Y-78110000D01*
X149214888Y-80190000D02*
X149214888Y-81710000D01*
X149254888Y-76595000D02*
X149254888Y-78110000D01*
X149254888Y-80190000D02*
X149254888Y-81705000D01*
X149294888Y-76601000D02*
X149294888Y-78110000D01*
X149294888Y-80190000D02*
X149294888Y-81699000D01*
X149334888Y-76607000D02*
X149334888Y-78110000D01*
X149334888Y-80190000D02*
X149334888Y-81693000D01*
X149374888Y-76614000D02*
X149374888Y-78110000D01*
X149374888Y-80190000D02*
X149374888Y-81686000D01*
X149414888Y-76622000D02*
X149414888Y-78110000D01*
X149414888Y-80190000D02*
X149414888Y-81678000D01*
X149454888Y-76631000D02*
X149454888Y-78110000D01*
X149454888Y-80190000D02*
X149454888Y-81669000D01*
X149494888Y-76640000D02*
X149494888Y-78110000D01*
X149494888Y-80190000D02*
X149494888Y-81660000D01*
X149534888Y-76649000D02*
X149534888Y-78110000D01*
X149534888Y-80190000D02*
X149534888Y-81651000D01*
X149574888Y-76660000D02*
X149574888Y-78110000D01*
X149574888Y-80190000D02*
X149574888Y-81640000D01*
X149614888Y-76671000D02*
X149614888Y-78110000D01*
X149614888Y-80190000D02*
X149614888Y-81629000D01*
X149654888Y-76683000D02*
X149654888Y-78110000D01*
X149654888Y-80190000D02*
X149654888Y-81617000D01*
X149694888Y-76695000D02*
X149694888Y-78110000D01*
X149694888Y-80190000D02*
X149694888Y-81605000D01*
X149734888Y-76708000D02*
X149734888Y-78110000D01*
X149734888Y-80190000D02*
X149734888Y-81592000D01*
X149774888Y-76722000D02*
X149774888Y-78110000D01*
X149774888Y-80190000D02*
X149774888Y-81578000D01*
X149814888Y-76737000D02*
X149814888Y-78110000D01*
X149814888Y-80190000D02*
X149814888Y-81563000D01*
X149854888Y-76752000D02*
X149854888Y-78110000D01*
X149854888Y-80190000D02*
X149854888Y-81548000D01*
X149894888Y-76768000D02*
X149894888Y-78110000D01*
X149894888Y-80190000D02*
X149894888Y-81532000D01*
X149934888Y-76785000D02*
X149934888Y-78110000D01*
X149934888Y-80190000D02*
X149934888Y-81515000D01*
X149974888Y-76803000D02*
X149974888Y-78110000D01*
X149974888Y-80190000D02*
X149974888Y-81497000D01*
X150014888Y-76821000D02*
X150014888Y-78110000D01*
X150014888Y-80190000D02*
X150014888Y-81479000D01*
X150054888Y-76841000D02*
X150054888Y-78110000D01*
X150054888Y-80190000D02*
X150054888Y-81459000D01*
X150094888Y-76861000D02*
X150094888Y-78110000D01*
X150094888Y-80190000D02*
X150094888Y-81439000D01*
X150134888Y-76882000D02*
X150134888Y-78110000D01*
X150134888Y-80190000D02*
X150134888Y-81418000D01*
X150174888Y-76904000D02*
X150174888Y-78110000D01*
X150174888Y-80190000D02*
X150174888Y-81396000D01*
X150214888Y-76927000D02*
X150214888Y-78110000D01*
X150214888Y-80190000D02*
X150214888Y-81373000D01*
X150254888Y-76951000D02*
X150254888Y-78110000D01*
X150254888Y-80190000D02*
X150254888Y-81349000D01*
X150294888Y-76975000D02*
X150294888Y-78110000D01*
X150294888Y-80190000D02*
X150294888Y-81325000D01*
X150334888Y-77001000D02*
X150334888Y-78110000D01*
X150334888Y-80190000D02*
X150334888Y-81299000D01*
X150374888Y-77028000D02*
X150374888Y-78110000D01*
X150374888Y-80190000D02*
X150374888Y-81272000D01*
X150414888Y-77056000D02*
X150414888Y-78110000D01*
X150414888Y-80190000D02*
X150414888Y-81244000D01*
X150454888Y-77085000D02*
X150454888Y-78110000D01*
X150454888Y-80190000D02*
X150454888Y-81215000D01*
X150494888Y-77115000D02*
X150494888Y-78110000D01*
X150494888Y-80190000D02*
X150494888Y-81185000D01*
X150534888Y-77147000D02*
X150534888Y-78110000D01*
X150534888Y-80190000D02*
X150534888Y-81153000D01*
X150574888Y-77180000D02*
X150574888Y-78110000D01*
X150574888Y-80190000D02*
X150574888Y-81120000D01*
X150614888Y-77214000D02*
X150614888Y-78110000D01*
X150614888Y-80190000D02*
X150614888Y-81086000D01*
X150654888Y-77249000D02*
X150654888Y-78110000D01*
X150654888Y-80190000D02*
X150654888Y-81051000D01*
X150694888Y-77286000D02*
X150694888Y-78110000D01*
X150694888Y-80190000D02*
X150694888Y-81014000D01*
X150734888Y-77325000D02*
X150734888Y-78110000D01*
X150734888Y-80190000D02*
X150734888Y-80975000D01*
X150774888Y-77365000D02*
X150774888Y-78110000D01*
X150774888Y-80190000D02*
X150774888Y-80935000D01*
X150814888Y-77407000D02*
X150814888Y-78110000D01*
X150814888Y-80190000D02*
X150814888Y-80893000D01*
X150854888Y-77451000D02*
X150854888Y-78110000D01*
X150854888Y-80190000D02*
X150854888Y-80849000D01*
X150894888Y-77498000D02*
X150894888Y-78110000D01*
X150894888Y-80190000D02*
X150894888Y-80802000D01*
X150934888Y-77546000D02*
X150934888Y-80754000D01*
X150974888Y-77597000D02*
X150974888Y-80703000D01*
X151014888Y-77651000D02*
X151014888Y-80649000D01*
X151054888Y-77707000D02*
X151054888Y-80593000D01*
X151094888Y-77767000D02*
X151094888Y-80533000D01*
X151134888Y-77831000D02*
X151134888Y-80469000D01*
X151174888Y-77899000D02*
X151174888Y-80401000D01*
X151214888Y-77973000D02*
X151214888Y-80327000D01*
X151254888Y-78052000D02*
X151254888Y-80248000D01*
X151294888Y-78139000D02*
X151294888Y-80161000D01*
X151334888Y-78236000D02*
X151334888Y-80064000D01*
X151374888Y-78345000D02*
X151374888Y-79955000D01*
X151414888Y-78473000D02*
X151414888Y-79827000D01*
X151454888Y-78633000D02*
X151454888Y-79667000D01*
X151494888Y-78867000D02*
X151494888Y-79433000D01*
X151514888Y-79150000D02*
G75*
G02*
X146274888Y-79150000I-2620000J0D01*
G01*
X146274888Y-79150000D02*
G75*
G02*
X151514888Y-79150000I2620000J0D01*
G01*
%TO.C,C3*%
X125110000Y-97944888D02*
X123570000Y-97944888D01*
X125110000Y-97984888D02*
X123570000Y-97984888D01*
X125110000Y-98024888D02*
X123571000Y-98024888D01*
X125110000Y-98064888D02*
X123573000Y-98064888D01*
X125110000Y-98104888D02*
X123575000Y-98104888D01*
X125110000Y-98144888D02*
X123578000Y-98144888D01*
X125110000Y-98184888D02*
X123581000Y-98184888D01*
X125110000Y-98224888D02*
X123585000Y-98224888D01*
X125110000Y-98264888D02*
X123590000Y-98264888D01*
X125110000Y-98304888D02*
X123595000Y-98304888D01*
X125110000Y-98344888D02*
X123601000Y-98344888D01*
X125110000Y-98384888D02*
X123607000Y-98384888D01*
X125110000Y-98424888D02*
X123614000Y-98424888D01*
X125110000Y-98464888D02*
X123622000Y-98464888D01*
X125110000Y-98504888D02*
X123631000Y-98504888D01*
X125110000Y-98544888D02*
X123640000Y-98544888D01*
X125110000Y-98584888D02*
X123649000Y-98584888D01*
X125110000Y-98624888D02*
X123660000Y-98624888D01*
X125110000Y-98664888D02*
X123671000Y-98664888D01*
X125110000Y-98704888D02*
X123683000Y-98704888D01*
X125110000Y-98744888D02*
X123695000Y-98744888D01*
X125110000Y-98784888D02*
X123708000Y-98784888D01*
X125110000Y-98824888D02*
X123722000Y-98824888D01*
X125110000Y-98864888D02*
X123737000Y-98864888D01*
X125110000Y-98904888D02*
X123752000Y-98904888D01*
X125110000Y-98944888D02*
X123768000Y-98944888D01*
X125110000Y-98984888D02*
X123785000Y-98984888D01*
X125110000Y-99024888D02*
X123803000Y-99024888D01*
X125110000Y-99064888D02*
X123821000Y-99064888D01*
X125110000Y-99104888D02*
X123841000Y-99104888D01*
X125110000Y-99144888D02*
X123861000Y-99144888D01*
X125110000Y-99184888D02*
X123882000Y-99184888D01*
X125110000Y-99224888D02*
X123904000Y-99224888D01*
X125110000Y-99264888D02*
X123927000Y-99264888D01*
X125110000Y-99304888D02*
X123951000Y-99304888D01*
X125110000Y-99344888D02*
X123975000Y-99344888D01*
X125110000Y-99384888D02*
X124001000Y-99384888D01*
X125110000Y-99424888D02*
X124028000Y-99424888D01*
X125110000Y-99464888D02*
X124056000Y-99464888D01*
X125110000Y-99504888D02*
X124085000Y-99504888D01*
X125110000Y-99544888D02*
X124115000Y-99544888D01*
X125110000Y-99584888D02*
X124147000Y-99584888D01*
X125110000Y-99624888D02*
X124180000Y-99624888D01*
X125110000Y-99664888D02*
X124214000Y-99664888D01*
X125110000Y-99704888D02*
X124249000Y-99704888D01*
X125110000Y-99744888D02*
X124286000Y-99744888D01*
X125110000Y-99784888D02*
X124325000Y-99784888D01*
X125110000Y-99824888D02*
X124365000Y-99824888D01*
X125110000Y-99864888D02*
X124407000Y-99864888D01*
X125110000Y-99904888D02*
X124451000Y-99904888D01*
X125110000Y-99944888D02*
X124498000Y-99944888D01*
X126433000Y-100544888D02*
X125867000Y-100544888D01*
X126667000Y-100504888D02*
X125633000Y-100504888D01*
X126827000Y-100464888D02*
X125473000Y-100464888D01*
X126955000Y-100424888D02*
X125345000Y-100424888D01*
X127064000Y-100384888D02*
X125236000Y-100384888D01*
X127161000Y-100344888D02*
X125139000Y-100344888D01*
X127248000Y-100304888D02*
X125052000Y-100304888D01*
X127327000Y-100264888D02*
X124973000Y-100264888D01*
X127401000Y-100224888D02*
X124899000Y-100224888D01*
X127469000Y-100184888D02*
X124831000Y-100184888D01*
X127533000Y-100144888D02*
X124767000Y-100144888D01*
X127593000Y-100104888D02*
X124707000Y-100104888D01*
X127625000Y-95140113D02*
X127625000Y-95640113D01*
X127649000Y-100064888D02*
X124651000Y-100064888D01*
X127703000Y-100024888D02*
X124597000Y-100024888D01*
X127754000Y-99984888D02*
X124546000Y-99984888D01*
X127802000Y-99944888D02*
X127190000Y-99944888D01*
X127849000Y-99904888D02*
X127190000Y-99904888D01*
X127875000Y-95390113D02*
X127375000Y-95390113D01*
X127893000Y-99864888D02*
X127190000Y-99864888D01*
X127935000Y-99824888D02*
X127190000Y-99824888D01*
X127975000Y-99784888D02*
X127190000Y-99784888D01*
X128014000Y-99744888D02*
X127190000Y-99744888D01*
X128051000Y-99704888D02*
X127190000Y-99704888D01*
X128086000Y-99664888D02*
X127190000Y-99664888D01*
X128120000Y-99624888D02*
X127190000Y-99624888D01*
X128153000Y-99584888D02*
X127190000Y-99584888D01*
X128185000Y-99544888D02*
X127190000Y-99544888D01*
X128215000Y-99504888D02*
X127190000Y-99504888D01*
X128244000Y-99464888D02*
X127190000Y-99464888D01*
X128272000Y-99424888D02*
X127190000Y-99424888D01*
X128299000Y-99384888D02*
X127190000Y-99384888D01*
X128325000Y-99344888D02*
X127190000Y-99344888D01*
X128349000Y-99304888D02*
X127190000Y-99304888D01*
X128373000Y-99264888D02*
X127190000Y-99264888D01*
X128396000Y-99224888D02*
X127190000Y-99224888D01*
X128418000Y-99184888D02*
X127190000Y-99184888D01*
X128439000Y-99144888D02*
X127190000Y-99144888D01*
X128459000Y-99104888D02*
X127190000Y-99104888D01*
X128479000Y-99064888D02*
X127190000Y-99064888D01*
X128497000Y-99024888D02*
X127190000Y-99024888D01*
X128515000Y-98984888D02*
X127190000Y-98984888D01*
X128532000Y-98944888D02*
X127190000Y-98944888D01*
X128548000Y-98904888D02*
X127190000Y-98904888D01*
X128563000Y-98864888D02*
X127190000Y-98864888D01*
X128578000Y-98824888D02*
X127190000Y-98824888D01*
X128592000Y-98784888D02*
X127190000Y-98784888D01*
X128605000Y-98744888D02*
X127190000Y-98744888D01*
X128617000Y-98704888D02*
X127190000Y-98704888D01*
X128629000Y-98664888D02*
X127190000Y-98664888D01*
X128640000Y-98624888D02*
X127190000Y-98624888D01*
X128651000Y-98584888D02*
X127190000Y-98584888D01*
X128660000Y-98544888D02*
X127190000Y-98544888D01*
X128669000Y-98504888D02*
X127190000Y-98504888D01*
X128678000Y-98464888D02*
X127190000Y-98464888D01*
X128686000Y-98424888D02*
X127190000Y-98424888D01*
X128693000Y-98384888D02*
X127190000Y-98384888D01*
X128699000Y-98344888D02*
X127190000Y-98344888D01*
X128705000Y-98304888D02*
X127190000Y-98304888D01*
X128710000Y-98264888D02*
X127190000Y-98264888D01*
X128715000Y-98224888D02*
X127190000Y-98224888D01*
X128719000Y-98184888D02*
X127190000Y-98184888D01*
X128722000Y-98144888D02*
X127190000Y-98144888D01*
X128725000Y-98104888D02*
X127190000Y-98104888D01*
X128727000Y-98064888D02*
X127190000Y-98064888D01*
X128729000Y-98024888D02*
X127190000Y-98024888D01*
X128730000Y-97944888D02*
X127190000Y-97944888D01*
X128730000Y-97984888D02*
X127190000Y-97984888D01*
X128770000Y-97944888D02*
G75*
G02*
X123530000Y-97944888I-2620000J0D01*
G01*
X123530000Y-97944888D02*
G75*
G02*
X128770000Y-97944888I2620000J0D01*
G01*
%TO.C,D2*%
D13*
X129130428Y-85699106D02*
X129130428Y-88831106D01*
X129130428Y-85699106D02*
G75*
G02*
X129130428Y-88831106I2506124J-1566000D01*
G01*
D14*
X128530428Y-87265106D02*
G75*
G02*
X128330428Y-87265106I-100000J0D01*
G01*
X128330428Y-87265106D02*
G75*
G02*
X128530428Y-87265106I100000J0D01*
G01*
%TO.C,D1*%
D13*
X129130428Y-78234000D02*
X129130428Y-81366000D01*
X129130428Y-78234000D02*
G75*
G02*
X129130428Y-81366000I2506124J-1566000D01*
G01*
D14*
X128530428Y-79800000D02*
G75*
G02*
X128330428Y-79800000I-100000J0D01*
G01*
X128330428Y-79800000D02*
G75*
G02*
X128530428Y-79800000I100000J0D01*
G01*
%TO.C,DS1*%
D13*
X126200000Y-107750000D02*
X161700000Y-107750000D01*
X126200000Y-141450000D02*
X126200000Y-107750000D01*
X161700000Y-107750000D02*
X161700000Y-141450000D01*
X161700000Y-141450000D02*
X126200000Y-141450000D01*
D14*
X140240000Y-107200000D02*
G75*
G02*
X140040000Y-107200000I-100000J0D01*
G01*
X140040000Y-107200000D02*
G75*
G02*
X140240000Y-107200000I100000J0D01*
G01*
%TO.C,D4*%
D13*
X129130428Y-100629318D02*
X129130428Y-103761318D01*
X129130428Y-100629318D02*
G75*
G02*
X129130428Y-103761318I2506124J-1566000D01*
G01*
D14*
X128530428Y-102195318D02*
G75*
G02*
X128330428Y-102195318I-100000J0D01*
G01*
X128330428Y-102195318D02*
G75*
G02*
X128530428Y-102195318I100000J0D01*
G01*
%TO.C,U2*%
D13*
X140830000Y-104279000D02*
X140830000Y-87134000D01*
X142735000Y-106184000D02*
X156705000Y-106184000D01*
X145225000Y-85229000D02*
X145228728Y-84318728D01*
X145728728Y-83819000D02*
X153724000Y-83819000D01*
X154224000Y-84319000D02*
X154224000Y-85229000D01*
D15*
X156705000Y-85229000D02*
X142735000Y-85229000D01*
D13*
X156705000Y-85229000D02*
X142735000Y-85229000D01*
X158610000Y-104279000D02*
X158610000Y-87134000D01*
X140830000Y-87134000D02*
G75*
G02*
X142735000Y-85229000I1905000J0D01*
G01*
X142735000Y-106184000D02*
G75*
G02*
X140830000Y-104279000I1J1905001D01*
G01*
X145228728Y-84318728D02*
G75*
G02*
X145728728Y-83819028I499972J-272D01*
G01*
X153724000Y-83819000D02*
G75*
G02*
X154224000Y-84319000I0J-500000D01*
G01*
X156705000Y-85229000D02*
G75*
G02*
X158610000Y-87134000I0J-1905000D01*
G01*
X158610000Y-104279000D02*
G75*
G02*
X156705000Y-106184000I-1905001J1D01*
G01*
D16*
X141022000Y-85470000D02*
G75*
G02*
X140518000Y-85470000I-252000J0D01*
G01*
X140518000Y-85470000D02*
G75*
G02*
X141022000Y-85470000I252000J0D01*
G01*
X142165000Y-86350000D02*
G75*
G02*
X141661000Y-86350000I-252000J0D01*
G01*
X141661000Y-86350000D02*
G75*
G02*
X142165000Y-86350000I252000J0D01*
G01*
%TO.C,U1*%
D17*
X141920709Y-79200000D02*
G75*
G02*
X141779291Y-79200000I-70709J0D01*
G01*
X141779291Y-79200000D02*
G75*
G02*
X141920709Y-79200000I70709J0D01*
G01*
%TO.C,D3*%
D13*
X129130428Y-93164212D02*
X129130428Y-96296212D01*
X129130428Y-93164212D02*
G75*
G02*
X129130428Y-96296212I2506124J-1566000D01*
G01*
D14*
X128530428Y-94730212D02*
G75*
G02*
X128330428Y-94730212I-100000J0D01*
G01*
X128330428Y-94730212D02*
G75*
G02*
X128530428Y-94730212I100000J0D01*
G01*
%TO.C,R1*%
D12*
X135830000Y-82120000D02*
X135830000Y-78280000D01*
X137670000Y-82120000D02*
X137670000Y-78280000D01*
%TO.C,R2*%
X135880000Y-89320000D02*
X135880000Y-85480000D01*
X137720000Y-89320000D02*
X137720000Y-85480000D01*
%TO.C,R4*%
X135880000Y-103870000D02*
X135880000Y-100030000D01*
X137720000Y-103870000D02*
X137720000Y-100030000D01*
%TO.C,C2*%
X153970000Y-82110000D02*
X155510000Y-82110000D01*
X153970000Y-82150000D02*
X155510000Y-82150000D01*
X153971000Y-82070000D02*
X155510000Y-82070000D01*
X153973000Y-82030000D02*
X155510000Y-82030000D01*
X153975000Y-81990000D02*
X155510000Y-81990000D01*
X153978000Y-81950000D02*
X155510000Y-81950000D01*
X153981000Y-81910000D02*
X155510000Y-81910000D01*
X153985000Y-81870000D02*
X155510000Y-81870000D01*
X153990000Y-81830000D02*
X155510000Y-81830000D01*
X153995000Y-81790000D02*
X155510000Y-81790000D01*
X154001000Y-81750000D02*
X155510000Y-81750000D01*
X154007000Y-81710000D02*
X155510000Y-81710000D01*
X154014000Y-81670000D02*
X155510000Y-81670000D01*
X154022000Y-81630000D02*
X155510000Y-81630000D01*
X154031000Y-81590000D02*
X155510000Y-81590000D01*
X154040000Y-81550000D02*
X155510000Y-81550000D01*
X154049000Y-81510000D02*
X155510000Y-81510000D01*
X154060000Y-81470000D02*
X155510000Y-81470000D01*
X154071000Y-81430000D02*
X155510000Y-81430000D01*
X154083000Y-81390000D02*
X155510000Y-81390000D01*
X154095000Y-81350000D02*
X155510000Y-81350000D01*
X154108000Y-81310000D02*
X155510000Y-81310000D01*
X154122000Y-81270000D02*
X155510000Y-81270000D01*
X154137000Y-81230000D02*
X155510000Y-81230000D01*
X154152000Y-81190000D02*
X155510000Y-81190000D01*
X154168000Y-81150000D02*
X155510000Y-81150000D01*
X154185000Y-81110000D02*
X155510000Y-81110000D01*
X154203000Y-81070000D02*
X155510000Y-81070000D01*
X154221000Y-81030000D02*
X155510000Y-81030000D01*
X154241000Y-80990000D02*
X155510000Y-80990000D01*
X154261000Y-80950000D02*
X155510000Y-80950000D01*
X154282000Y-80910000D02*
X155510000Y-80910000D01*
X154304000Y-80870000D02*
X155510000Y-80870000D01*
X154327000Y-80830000D02*
X155510000Y-80830000D01*
X154351000Y-80790000D02*
X155510000Y-80790000D01*
X154375000Y-80750000D02*
X155510000Y-80750000D01*
X154401000Y-80710000D02*
X155510000Y-80710000D01*
X154428000Y-80670000D02*
X155510000Y-80670000D01*
X154456000Y-80630000D02*
X155510000Y-80630000D01*
X154485000Y-80590000D02*
X155510000Y-80590000D01*
X154515000Y-80550000D02*
X155510000Y-80550000D01*
X154547000Y-80510000D02*
X155510000Y-80510000D01*
X154580000Y-80470000D02*
X155510000Y-80470000D01*
X154614000Y-80430000D02*
X155510000Y-80430000D01*
X154649000Y-80390000D02*
X155510000Y-80390000D01*
X154686000Y-80350000D02*
X155510000Y-80350000D01*
X154725000Y-80310000D02*
X155510000Y-80310000D01*
X154765000Y-80270000D02*
X155510000Y-80270000D01*
X154807000Y-80230000D02*
X155510000Y-80230000D01*
X154825000Y-84704775D02*
X155325000Y-84704775D01*
X154851000Y-80190000D02*
X155510000Y-80190000D01*
X154898000Y-80150000D02*
X155510000Y-80150000D01*
X154946000Y-80110000D02*
X158154000Y-80110000D01*
X154997000Y-80070000D02*
X158103000Y-80070000D01*
X155051000Y-80030000D02*
X158049000Y-80030000D01*
X155075000Y-84954775D02*
X155075000Y-84454775D01*
X155107000Y-79990000D02*
X157993000Y-79990000D01*
X155167000Y-79950000D02*
X157933000Y-79950000D01*
X155231000Y-79910000D02*
X157869000Y-79910000D01*
X155299000Y-79870000D02*
X157801000Y-79870000D01*
X155373000Y-79830000D02*
X157727000Y-79830000D01*
X155452000Y-79790000D02*
X157648000Y-79790000D01*
X155539000Y-79750000D02*
X157561000Y-79750000D01*
X155636000Y-79710000D02*
X157464000Y-79710000D01*
X155745000Y-79670000D02*
X157355000Y-79670000D01*
X155873000Y-79630000D02*
X157227000Y-79630000D01*
X156033000Y-79590000D02*
X157067000Y-79590000D01*
X156267000Y-79550000D02*
X156833000Y-79550000D01*
X157590000Y-80150000D02*
X158202000Y-80150000D01*
X157590000Y-80190000D02*
X158249000Y-80190000D01*
X157590000Y-80230000D02*
X158293000Y-80230000D01*
X157590000Y-80270000D02*
X158335000Y-80270000D01*
X157590000Y-80310000D02*
X158375000Y-80310000D01*
X157590000Y-80350000D02*
X158414000Y-80350000D01*
X157590000Y-80390000D02*
X158451000Y-80390000D01*
X157590000Y-80430000D02*
X158486000Y-80430000D01*
X157590000Y-80470000D02*
X158520000Y-80470000D01*
X157590000Y-80510000D02*
X158553000Y-80510000D01*
X157590000Y-80550000D02*
X158585000Y-80550000D01*
X157590000Y-80590000D02*
X158615000Y-80590000D01*
X157590000Y-80630000D02*
X158644000Y-80630000D01*
X157590000Y-80670000D02*
X158672000Y-80670000D01*
X157590000Y-80710000D02*
X158699000Y-80710000D01*
X157590000Y-80750000D02*
X158725000Y-80750000D01*
X157590000Y-80790000D02*
X158749000Y-80790000D01*
X157590000Y-80830000D02*
X158773000Y-80830000D01*
X157590000Y-80870000D02*
X158796000Y-80870000D01*
X157590000Y-80910000D02*
X158818000Y-80910000D01*
X157590000Y-80950000D02*
X158839000Y-80950000D01*
X157590000Y-80990000D02*
X158859000Y-80990000D01*
X157590000Y-81030000D02*
X158879000Y-81030000D01*
X157590000Y-81070000D02*
X158897000Y-81070000D01*
X157590000Y-81110000D02*
X158915000Y-81110000D01*
X157590000Y-81150000D02*
X158932000Y-81150000D01*
X157590000Y-81190000D02*
X158948000Y-81190000D01*
X157590000Y-81230000D02*
X158963000Y-81230000D01*
X157590000Y-81270000D02*
X158978000Y-81270000D01*
X157590000Y-81310000D02*
X158992000Y-81310000D01*
X157590000Y-81350000D02*
X159005000Y-81350000D01*
X157590000Y-81390000D02*
X159017000Y-81390000D01*
X157590000Y-81430000D02*
X159029000Y-81430000D01*
X157590000Y-81470000D02*
X159040000Y-81470000D01*
X157590000Y-81510000D02*
X159051000Y-81510000D01*
X157590000Y-81550000D02*
X159060000Y-81550000D01*
X157590000Y-81590000D02*
X159069000Y-81590000D01*
X157590000Y-81630000D02*
X159078000Y-81630000D01*
X157590000Y-81670000D02*
X159086000Y-81670000D01*
X157590000Y-81710000D02*
X159093000Y-81710000D01*
X157590000Y-81750000D02*
X159099000Y-81750000D01*
X157590000Y-81790000D02*
X159105000Y-81790000D01*
X157590000Y-81830000D02*
X159110000Y-81830000D01*
X157590000Y-81870000D02*
X159115000Y-81870000D01*
X157590000Y-81910000D02*
X159119000Y-81910000D01*
X157590000Y-81950000D02*
X159122000Y-81950000D01*
X157590000Y-81990000D02*
X159125000Y-81990000D01*
X157590000Y-82030000D02*
X159127000Y-82030000D01*
X157590000Y-82070000D02*
X159129000Y-82070000D01*
X157590000Y-82110000D02*
X159130000Y-82110000D01*
X157590000Y-82150000D02*
X159130000Y-82150000D01*
X159170000Y-82150000D02*
G75*
G02*
X153930000Y-82150000I-2620000J0D01*
G01*
X153930000Y-82150000D02*
G75*
G02*
X159170000Y-82150000I2620000J0D01*
G01*
%TD*%
M02*
