%TF.GenerationSoftware,KiCad,Pcbnew,10.0.1*%
%TF.CreationDate,2026-04-24T15:57:56+02:00*%
%TF.ProjectId,Untitled,556e7469-746c-4656-942e-6b696361645f,rev?*%
%TF.SameCoordinates,Original*%
%TF.FileFunction,Copper,L2,Bot*%
%TF.FilePolarity,Positive*%
%FSLAX46Y46*%
G04 Gerber Fmt 4.6, Leading zero omitted, Abs format (unit mm)*
G04 Created by KiCad (PCBNEW 10.0.1) date 2026-04-24 15:57:56*
%MOMM*%
%LPD*%
G01*
G04 APERTURE LIST*
%TA.AperFunction,ComponentPad*%
%ADD10C,1.400000*%
%TD*%
%TA.AperFunction,ComponentPad*%
%ADD11C,1.815000*%
%TD*%
%TA.AperFunction,ComponentPad*%
%ADD12R,1.815000X1.815000*%
%TD*%
%TA.AperFunction,ComponentPad*%
%ADD13R,1.508000X1.508000*%
%TD*%
%TA.AperFunction,ComponentPad*%
%ADD14C,1.508000*%
%TD*%
%TA.AperFunction,ComponentPad*%
%ADD15C,1.524000*%
%TD*%
%TA.AperFunction,ViaPad*%
%ADD16C,0.600000*%
%TD*%
%TA.AperFunction,Conductor*%
%ADD17C,0.200000*%
%TD*%
G04 APERTURE END LIST*
D10*
%TO.P,R3,1*%
%TO.N,Net-(D3-PadA)*%
X141950000Y-76910000D03*
%TO.P,R3,2*%
%TO.N,LED3*%
X141950000Y-81990000D03*
%TD*%
D11*
%TO.P,D2,A*%
%TO.N,Net-(D2-PadA)*%
X132900428Y-87265106D03*
D12*
%TO.P,D2,C*%
%TO.N,3.3V*%
X130360428Y-87265106D03*
%TD*%
%TO.P,D1,C*%
%TO.N,3.3V*%
X130360428Y-79800000D03*
D11*
%TO.P,D1,A*%
%TO.N,Net-(D1-PadA)*%
X132900428Y-79800000D03*
%TD*%
D13*
%TO.P,DS1,1,VDD_1*%
%TO.N,3.3V*%
X140140000Y-109050000D03*
D14*
%TO.P,DS1,2,GND_2*%
X142680000Y-109050000D03*
%TO.P,DS1,3,SCK_3*%
%TO.N,SCL*%
X145220000Y-109050000D03*
%TO.P,DS1,4,SDA_4*%
%TO.N,SDA*%
X147760000Y-109050000D03*
%TD*%
D11*
%TO.P,D4,A*%
%TO.N,Net-(D4-PadA)*%
X132900428Y-102195318D03*
D12*
%TO.P,D4,C*%
%TO.N,3.3V*%
X130360428Y-102195318D03*
%TD*%
D11*
%TO.P,D3,A*%
%TO.N,Net-(D3-PadA)*%
X132900428Y-94730212D03*
D12*
%TO.P,D3,C*%
%TO.N,3.3V*%
X130360428Y-94730212D03*
%TD*%
D10*
%TO.P,R1,1*%
%TO.N,Net-(D1-PadA)*%
X149950000Y-76920000D03*
%TO.P,R1,2*%
%TO.N,LED1*%
X149950000Y-82000000D03*
%TD*%
%TO.P,R2,1*%
%TO.N,Net-(D2-PadA)*%
X146100000Y-76960000D03*
%TO.P,R2,2*%
%TO.N,LED2*%
X146100000Y-82040000D03*
%TD*%
%TO.P,R4,1*%
%TO.N,Net-(D4-PadA)*%
X137450000Y-76860000D03*
%TO.P,R4,2*%
%TO.N,LED4*%
X137450000Y-81940000D03*
%TD*%
D15*
%TO.P,U2,14,VBUS_14*%
%TO.N,unconnected-(U2-VBUS-Pad14)*%
X156001500Y-103320000D03*
%TO.P,U2,13,GND_13*%
%TO.N,3.3V*%
X153461500Y-103320000D03*
%TO.P,U2,12,3V3_12*%
X150921500Y-103320000D03*
%TO.P,U2,11,P3_D10_MOSI_11*%
%TO.N,unconnected-(U2-P3_D10_MOSI-Pad11)*%
X148381500Y-103320000D03*
%TO.P,U2,10,P4_D9_MISO_10*%
%TO.N,unconnected-(U2-P4_D9_MISO-Pad10)*%
X145841500Y-103320000D03*
%TO.P,U2,9,P2_D8_SCK_9*%
%TO.N,unconnected-(U2-P2_D8_SCK-Pad9)*%
X143301500Y-103320000D03*
%TO.P,U2,8,P1_D7_RX_8*%
%TO.N,unconnected-(U2-P1_D7_RX-Pad8)*%
X140761500Y-103320000D03*
%TO.P,U2,7,P0_D6_TX_7*%
%TO.N,INTERRUPT*%
X140761500Y-88080000D03*
%TO.P,U2,6,P7_SCL_D5_6*%
%TO.N,SCL*%
X143301500Y-88080000D03*
%TO.P,U2,5,P6_SDA_D4_5*%
%TO.N,SDA*%
X145841500Y-88080000D03*
%TO.P,U2,4,P29_A3_D3_4*%
%TO.N,LED4*%
X148381500Y-88080000D03*
%TO.P,U2,3,P28_A2_D2_3*%
%TO.N,LED3*%
X150921500Y-88080000D03*
%TO.P,U2,2,P27_A1_D1_2*%
%TO.N,LED2*%
X153461500Y-88080000D03*
%TO.P,U2,1,P26_A0_D0_1*%
%TO.N,LED1*%
X156001500Y-88080000D03*
%TD*%
D16*
%TO.N,3.3V*%
X153550000Y-82200000D03*
X153550000Y-80400000D03*
%TO.N,SCL*%
X143500000Y-84300000D03*
X151500000Y-82500000D03*
%TO.N,SDA*%
X155950002Y-81300000D03*
X145841500Y-87085500D03*
%TO.N,INTERRUPT*%
X159100000Y-85100000D03*
%TO.N,Net-(D4-PadA)*%
X137300000Y-84700000D03*
%TD*%
%TO.N,3.3V*%
D17*
X153550000Y-80400000D02*
X153550000Y-82200000D01*
%TO.N,SCL*%
X149700000Y-84300000D02*
X143500000Y-84300000D01*
X151500000Y-82500000D02*
X149700000Y-84300000D01*
%TO.N,SDA*%
X159700000Y-84851471D02*
X159700000Y-85348529D01*
X155950002Y-81300000D02*
X156148529Y-81300000D01*
X156148529Y-81300000D02*
X159700000Y-84851471D01*
X159700000Y-85348529D02*
X158030529Y-87018000D01*
X158030529Y-87018000D02*
X145909000Y-87018000D01*
X145909000Y-87018000D02*
X145841500Y-87085500D01*
%TO.N,INTERRUPT*%
X159100000Y-85100000D02*
X143741500Y-85100000D01*
X143741500Y-85100000D02*
X140761500Y-88080000D01*
%TO.N,SDA*%
X147760000Y-109050000D02*
X147006000Y-108296000D01*
X147006000Y-108296000D02*
X147006000Y-89244500D01*
X147006000Y-89244500D02*
X145841500Y-88080000D01*
%TO.N,SCL*%
X143301500Y-88080000D02*
X144363500Y-89142000D01*
X144363500Y-89142000D02*
X144363500Y-108193500D01*
X144363500Y-108193500D02*
X145220000Y-109050000D01*
%TO.N,Net-(D4-PadA)*%
X137300000Y-84700000D02*
X136450000Y-83850000D01*
X136450000Y-83850000D02*
X136450000Y-77860000D01*
X136450000Y-77860000D02*
X137450000Y-76860000D01*
%TD*%
M02*
